<svg
    xmlns="http://www.w3.org/2000/svg"
    width="1000%"
    height="1000%"
    viewBox="0 0 48 48"
    id="vector">
    <path
        id="path"
        d="M 16.85 5 L 16.85 0.85 L 31.15 0.85 L 31.15 5 Z M 21.95 28.4 L 26.05 28.4 L 26.05 16.8 L 21.95 16.8 Z M 24 46.25 Q 20 46.25 16.5 44.725 Q 13 43.2 10.375 40.6 Q 7.75 38 6.25 34.5 Q 4.75 31 4.75 27 Q 4.75 23 6.25 19.5 Q 7.75 16 10.375 13.375 Q 13 10.75 16.5 9.225 Q 20 7.7 24 7.7 Q 27.45 7.7 30.525 8.825 Q 33.6 9.95 35.95 12 L 38.95 9 L 41.95 11.95 L 38.95 14.95 Q 40.8 17.05 42.05 20 Q 43.3 22.95 43.3 27 Q 43.3 31 41.775 34.5 Q 40.25 38 37.625 40.6 Q 35 43.2 31.5 44.725 Q 28 46.25 24 46.25 Z M 24 41.5 Q 30.1 41.5 34.325 37.3 Q 38.55 33.1 38.55 27 Q 38.55 20.9 34.325 16.675 Q 30.1 12.45 24 12.45 Q 17.9 12.45 13.675 16.675 Q 9.45 20.9 9.45 27 Q 9.45 33.1 13.675 37.3 Q 17.9 41.5 24 41.5 Z M 24 27.05 Q 24 27.05 24 27.05 Q 24 27.05 24 27.05 Q 24 27.05 24 27.05 Q 24 27.05 24 27.05 Q 24 27.05 24 27.05 Q 24 27.05 24 27.05 Q 24 27.05 24 27.05 Q 24 27.05 24 27.05 Z"
        fill="#000000"/>
</svg>
